<svg xmlns="http://www.w3.org/2000/svg" viewBox="-80.87999267578124 -71.81999511718749 661.7599853515625 293.639990234375" preserveAspectRatio="xMidYMid">
    <defs>
        <linearGradient id="glowing-gradient" x1="0.8146601955249185" x2="0.18533980447508147" y1="0.8885729807284856" y2="0.11142701927151444">
            <stop offset="0" stop-color="#67ff43"/><stop offset="1" stop-color="#90ffff"/>
        </linearGradient>
        <filter id="glowing" x="-100%" y="-100%" width="300%" height="300%">
            <feGaussianBlur in="SourceGraphic" result="blur" stdDeviation="10"/>
            <feMerge>
                <feMergeNode in="blur"/>
                <feMergeNode in="SourceGraphic"/>
            </feMerge>
        </filter>
    </defs>
    <g filter="url(#glowing)">
        <g transform="translate(14.290005683898926, 136.02500534057617)">
            <path d="M31.05-27.14L31.05-27.14L31.05-24.30L31.05-24.30Q31.05-22.01 31.12-19.78L31.12-19.78L31.12-19.78Q31.19-17.55 31.73-15.66L31.73-15.66L31.73-15.66Q31.05-9.04 30.71-2.43L30.71-2.43L30.71-2.43Q30.38 4.19 30.38 10.80L30.38 10.80L27.41 10.94L27.41 10.94Q26.73 10.94 26.39 10.06L26.39 10.06L26.39 10.06Q26.06 9.18 25.85 7.90L25.85 7.90L25.85 7.90Q25.65 6.62 25.58 5.13L25.58 5.13L25.58 5.13Q25.52 3.65 25.52 2.43L25.52 2.43L25.52-0.27L24.17-0.27L24.17-0.27Q24.17 0.54 23.76 3.24L23.76 3.24L23.76 3.24Q23.36 5.94 22.75 8.91L22.75 8.91L22.75 8.91Q22.14 11.88 21.20 14.24L21.20 14.24L21.20 14.24Q20.25 16.61 19.04 16.61L19.04 16.61L19.04 16.61Q18.09 16.61 17.42 14.78L17.42 14.78L17.42 14.78Q16.74 12.96 16.34 10.67L16.34 10.67L16.34 10.67Q15.93 8.37 15.66 6.28L15.66 6.28L15.66 6.28Q15.39 4.19 15.39 3.51L15.39 3.51L15.39 3.51Q14.18-8.37 14.18-20.32L14.18-20.32L14.18-20.32Q14.18-32.27 13.10-44.15L13.10-44.15L13.10-44.15Q12.69-48.20 11.88-52.04L11.88-52.04L11.88-52.04Q11.07-55.89 10.19-59.81L10.19-59.81L10.19-59.81Q9.32-63.72 8.71-67.64L8.71-67.64L8.71-67.64Q8.10-71.55 8.10-75.87L8.10-75.87L8.10-75.87Q8.10-81.95 11.21-85.39L11.21-85.39L11.21-85.39Q14.31-88.83 18.97-90.59L18.97-90.59L18.97-90.59Q23.63-92.34 29.03-92.75L29.03-92.75L29.03-92.75Q34.43-93.15 39.02-93.15L39.02-93.15L39.02-93.15Q48.33-93.15 57.31-91.80L57.31-91.80L57.31-91.80Q66.29-90.45 73.31-86.54L73.31-86.54L73.31-86.54Q80.33-82.62 84.58-75.53L84.58-75.53L84.58-75.53Q88.83-68.45 88.83-57.11L88.83-57.11L88.83-57.11Q88.83-47.52 85.93-40.37L85.93-40.37L85.93-40.37Q83.03-33.21 77.76-28.49L77.76-28.49L77.76-28.49Q72.50-23.76 65.00-21.40L65.00-21.40L65.00-21.40Q57.51-19.04 48.33-19.04L48.33-19.04L48.33-19.04Q47.93-19.04 46.58-19.10L46.58-19.10L46.58-19.10Q45.23-19.17 43.74-19.37L43.74-19.37L43.74-19.37Q42.26-19.58 41.11-20.05L41.11-20.05L41.11-20.05Q39.96-20.52 39.96-21.33L39.96-21.33L40.37-22.28L40.37-22.28Q42.66-22.14 44.96-22.07L44.96-22.07L44.96-22.07Q47.25-22.01 49.55-22.01L49.55-22.01L49.55-22.01Q53.60-22.01 57.58-22.41L57.58-22.41L57.58-22.41Q61.56-22.82 65.34-24.03L65.34-24.03L65.34-24.03Q69.12-25.25 72.36-27.41L72.36-27.41L72.36-27.41Q75.33-29.43 77.90-32.54L77.90-32.54L77.90-32.54Q75.20-29.43 72.09-27.41L72.09-27.41L72.09-27.41Q68.72-25.25 64.87-24.17L64.87-24.17L64.87-24.17Q61.02-23.09 56.90-22.75L56.90-22.75L56.90-22.75Q52.79-22.41 48.60-22.41L48.60-22.41L48.60-22.41Q46.71-22.41 44.69-22.48L44.69-22.48L44.69-22.48Q42.66-22.55 40.77-22.68L40.77-22.68L40.64-25.25L40.64-25.25Q39.55-25.11 38.75-25.04L38.75-25.04L38.75-25.04Q37.94-24.98 37.26-24.98L37.26-24.98L37.26-24.98Q35.64-24.98 34.29-25.45L34.29-25.45L34.29-25.45Q32.94-25.92 31.05-27.14ZM43.34-77.76L43.34-77.76L43.34-77.76Q38.75-77.76 33.62-77.42L33.62-77.42L33.62-77.42Q28.49-77.09 24.17-75.60L24.17-75.60L23.49-74.52L23.49-74.52Q28.62-76.01 32.94-76.28L32.94-76.28L32.94-76.28Q37.26-76.55 41.18-76.55L41.18-76.55L41.72-76.55L41.72-76.55Q47.52-76.55 53.19-76.21L53.19-76.21L53.19-76.21Q58.86-75.87 63.32-73.91L63.32-73.91L63.32-73.91Q67.77-71.95 70.54-67.84L70.54-67.84L70.54-67.84Q73.31-63.72 73.31-56.16L73.31-56.16L73.31-56.16Q73.31-53.87 72.90-51.84L72.90-51.84L72.90-51.84Q72.50-49.82 71.82-47.79L71.82-47.79L71.82-47.79Q72.36-49.68 72.70-51.64L72.70-51.64L72.70-51.64Q73.04-53.60 73.04-55.62L73.04-55.62L73.04-55.62Q73.04-60.75 71.28-64.94L71.28-64.94L71.28-64.94Q69.53-69.12 65.61-72.50L65.61-72.50L64.67-73.04L64.67-73.04Q62.64-73.98 59.60-74.52L59.60-74.52L59.60-74.52Q56.57-75.06 53.19-75.40L53.19-75.40L53.19-75.40Q49.82-75.73 46.37-75.80L46.37-75.80L46.37-75.80Q42.93-75.87 39.96-75.87L39.96-75.87L36.18-75.87L36.18-75.87Q33.75-75.87 30.58-75.47L30.58-75.47L30.58-75.47Q27.41-75.06 25.11-74.39L25.11-74.39L25.11-74.39Q25.11-71.01 25.72-67.70L25.72-67.70L25.72-67.70Q26.33-64.40 27-61.16L27-61.16L28.49-54.68L28.49-54.68Q29.30-51.44 29.57-48.20L29.57-48.20L30.78-31.32L30.78-31.32Q31.73-32.00 32.87-32.47L32.87-32.47L32.87-32.47Q34.02-32.94 35.91-32.94L35.91-32.94L36.59-32.94L36.59-32.94Q39.55-32.00 42.73-31.86L42.73-31.86L42.73-31.86Q45.90-31.73 49.01-31.73L49.01-31.73L49.01-31.73Q55.49-31.73 60.55-32.94L60.55-32.94L60.55-32.94Q65.61-34.16 69.12-37.06L69.12-37.06L69.12-37.06Q72.63-39.96 74.45-44.75L74.45-44.75L74.45-44.75Q76.28-49.55 76.28-56.57L76.28-56.57L76.28-56.57Q76.28-59.67 75.26-63.38L75.26-63.38L75.26-63.38Q74.25-67.09 72.23-70.34L72.23-70.34L72.23-70.34Q70.20-73.58 67.09-75.73L67.09-75.73L67.09-75.73Q64.13-77.90 60.21-78.03L60.21-78.03L60.21-78.03Q63.99-77.63 66.96-75.60L66.96-75.60L66.96-75.60Q69.93-73.58 71.95-70.47L71.95-70.47L71.95-70.47Q73.98-67.37 74.99-63.65L74.99-63.65L74.99-63.65Q76.01-59.94 76.01-56.43L76.01-56.43L76.01-56.43Q76.01-44.15 70.06-38.34L70.06-38.34L70.06-38.34Q64.13-32.54 51.84-32.54L51.84-32.54L51.84-32.54Q48.87-32.54 45.90-32.80L45.90-32.80L39.96-33.34L39.96-33.34Q44.42-34.43 49.07-34.63L49.07-34.63L49.07-34.63Q53.73-34.83 57.98-35.64L57.98-35.64L57.98-35.64Q62.24-36.45 65.68-38.68L65.68-38.68L65.68-38.68Q69.12-40.91 71.28-46.17L71.28-46.17L72.50-45.77L72.50-45.77Q74.12-50.22 74.12-55.08L74.12-55.08L74.12-55.08Q74.12-62.51 71.62-66.96L71.62-66.96L71.62-66.96Q69.12-71.42 64.94-73.84L64.94-73.84L64.94-73.84Q60.75-76.28 55.15-77.02L55.15-77.02L55.15-77.02Q49.55-77.76 43.34-77.76ZM86.13-57.38L86.13-57.38L86.13-57.38Q86.13-62.91 84.65-67.57L84.65-67.57L84.65-67.57Q83.16-72.23 80.06-76.68L80.06-76.68L80.06-76.68Q82.89-72.23 84.31-67.16L84.31-67.16L84.31-67.16Q85.73-62.10 85.73-56.84L85.73-56.84L85.73-56.84Q85.73-48.33 82.35-40.50L82.35-40.50L82.35-40.50Q84.11-44.28 85.05-48.47L85.05-48.47L85.05-48.47Q86.13-52.92 86.13-57.38ZM63.45-87.89L63.45-87.89L63.45-87.89Q65.34-87.21 67.16-86.74L67.16-86.74L67.16-86.74Q68.98-86.27 70.88-85.46L70.88-85.46L70.88-85.46Q67.50-87.21 63.45-87.89ZM76.28-81.41L76.28-81.41L76.28-81.41Q75.73-82.48 73.84-83.70L73.84-83.70L73.84-83.70Q72.09-84.78 71.01-85.32L71.01-85.32L71.01-85.32Q72.36-84.24 73.58-83.57L73.58-83.57L73.58-83.57Q74.93-82.76 76.28-81.41ZM100.17-42.26L100.31-41.85L100.31-41.85Q104.49-45.09 109.89-49.48L109.89-49.48L109.89-49.48Q115.29-53.87 120.35-58.86L120.35-58.86L120.35-58.86Q125.42-63.86 129.53-69.19L129.53-69.19L129.53-69.19Q133.65-74.52 135.14-79.65L135.14-79.65L134.33-79.92L134.33-79.92Q132.84-76.28 129.94-72.09L129.94-72.09L129.94-72.09Q127.04-67.91 123.53-63.86L123.53-63.86L123.53-63.86Q120.02-59.81 116.24-56.30L116.24-56.30L116.24-56.30Q112.46-52.79 109.22-50.49L109.22-50.49L109.22-50.49Q112.19-52.79 116.71-57.51L116.71-57.51L116.71-57.51Q121.23-62.24 125.42-67.84L125.42-67.84L125.42-67.84Q129.60-73.44 132.64-79.04L132.64-79.04L132.64-79.04Q135.68-84.65 135.68-88.70L135.68-88.70L129.47-90.05L129.47-90.05Q126.63-89.10 124.07-86.74L124.07-86.74L124.07-86.74Q121.50-84.38 119.07-82.89L119.07-82.89L119.07-82.89Q118.80-83.97 118.06-84.51L118.06-84.51L118.06-84.51Q117.32-85.05 117.05-86.13L117.05-86.13L117.05-86.13Q117.72-87.48 118.80-88.56L118.80-88.56L118.80-88.56Q119.88-89.64 121.23-90.32L121.23-90.32L120.42-91.40L120.42-91.40Q118.94-90.72 117.38-90.18L117.38-90.18L117.38-90.18Q115.83-89.64 114.21-89.64L114.21-89.64L114.21-89.64Q113.00-89.64 112.05-90.25L112.05-90.25L112.05-90.25Q111.11-90.86 111.11-91.94L111.11-91.94L111.11-93.15L111.11-93.15Q113.67-98.28 118.67-101.86L118.67-101.86L118.67-101.86Q123.66-105.44 129.60-105.44L129.60-105.44L129.60-105.44Q133.38-105.44 137.36-104.22L137.36-104.22L137.36-104.22Q141.35-103.01 144.59-100.71L144.59-100.71L144.59-100.71Q147.83-98.42 149.85-95.11L149.85-95.11L149.85-95.11Q151.88-91.80 151.88-87.48L151.88-87.48L151.88-87.48Q151.88-81.41 150.59-76.95L150.59-76.95L150.59-76.95Q149.31-72.50 147.02-68.72L147.02-68.72L147.02-68.72Q144.72-64.94 141.62-61.36L141.62-61.36L141.62-61.36Q138.51-57.78 135-53.46L135-53.46L135-53.46Q136.08-53.46 139.05-53.80L139.05-53.80L139.05-53.80Q142.02-54.14 145.13-54.14L145.13-54.14L145.13-54.14Q147.42-54.14 149.18-53.73L149.18-53.73L149.18-53.73Q150.93-53.33 150.93-52.25L150.93-52.25L150.80-51.57L150.80-51.57Q146.21-51.57 141.75-51.44L141.75-51.44L141.75-51.44Q137.30-51.30 132.71-51.17L132.71-51.17L132.57-51.03L145.94-51.03L145.94-51.03Q148.23-51.03 150.53-50.90L150.53-50.90L150.12-49.55L152.42-48.60L153.90-48.60L153.90-48.60Q154.98-48.06 155.86-47.25L155.86-47.25L155.86-47.25Q156.74-46.44 156.74-45.23L156.74-45.23L156.74-45.23Q156.74-44.01 155.18-42.93L155.18-42.93L155.18-42.93Q153.63-41.85 152.69-41.18L152.69-41.18L152.69-41.18Q150.80-41.85 148.77-41.92L148.77-41.92L148.77-41.92Q146.75-41.98 144.86-41.98L144.86-41.98L144.86-41.98Q142.70-41.98 140.54-41.78L140.54-41.78L140.54-41.78Q138.38-41.58 136.22-41.45L136.22-41.45L136.22-41.45Q140.00-41.31 143.71-41.11L143.71-41.11L143.71-41.11Q147.42-40.91 151.20-40.37L151.20-40.37L151.20-40.37Q148.23-39.02 144.99-38.68L144.99-38.68L144.99-38.68Q141.75-38.34 138.65-38.34L138.65-38.34L127.31-38.48L127.31-39.83L127.31-39.83Q124.20-39.15 121.16-38.95L121.16-38.95L121.16-38.95Q118.13-38.75 115.02-38.75L115.02-38.75L102.74-38.88L102.06-38.34L102.06-38.34Q107.60-38.21 113.00-38.21L113.00-38.21L123.93-38.21L123.93-38.21Q120.56-37.94 117.18-37.94L117.18-37.94L102.06-37.94L99.63-42.53L108.00-49.41L100.17-42.26ZM103.28-41.98L102.06-41.04L119.21-41.04L119.21-41.04Q120.29-41.04 121.37-41.18L121.37-41.18L121.23-41.31L121.23-41.31Q117.86-41.85 114.48-41.92L114.48-41.92L114.48-41.92Q111.11-41.98 107.60-41.98L107.60-41.98L103.28-41.98ZM122.58-59.27L122.58-59.27L122.58-59.27Q120.15-56.30 117.45-53.60L117.45-53.60L117.45-53.60Q118.40-53.60 119.88-55.08L119.88-55.08L119.88-55.08Q121.37-56.57 122.92-58.52L122.92-58.52L122.92-58.52Q124.47-60.48 125.82-62.37L125.82-62.37L125.82-62.37Q126.90-63.99 127.58-64.80L127.58-64.80L127.58-64.80Q125.01-62.10 122.58-59.27ZM117.05-52.52L116.91-53.06L116.91-53.06Q114.21-50.36 111.31-48.20L111.31-48.20L111.31-48.20Q108.41-46.04 105.71-43.88L105.71-43.88L105.71-43.88Q108.54-45.90 111.65-47.79L111.65-47.79L111.65-47.79Q114.75-49.68 117.05-52.52L117.05-52.52ZM194.54-27.14L194.54-27.14L194.54-24.30L194.54-24.30Q194.54-22.01 194.60-19.78L194.60-19.78L194.60-19.78Q194.67-17.55 195.21-15.66L195.21-15.66L195.21-15.66Q194.54-9.04 194.20-2.43L194.20-2.43L194.20-2.43Q193.86 4.19 193.86 10.80L193.86 10.80L190.89 10.94L190.89 10.94Q190.22 10.94 189.88 10.06L189.88 10.06L189.88 10.06Q189.54 9.18 189.34 7.90L189.34 7.90L189.34 7.90Q189.14 6.62 189.07 5.13L189.07 5.13L189.07 5.13Q189 3.65 189 2.43L189 2.43L189-0.27L187.65-0.27L187.65-0.27Q187.65 0.54 187.25 3.24L187.25 3.24L187.25 3.24Q186.84 5.94 186.23 8.91L186.23 8.91L186.23 8.91Q185.63 11.88 184.68 14.24L184.68 14.24L184.68 14.24Q183.74 16.61 182.52 16.61L182.52 16.61L182.52 16.61Q181.58 16.61 180.90 14.78L180.90 14.78L180.90 14.78Q180.23 12.96 179.82 10.67L179.82 10.67L179.82 10.67Q179.42 8.37 179.15 6.28L179.15 6.28L179.15 6.28Q178.88 4.19 178.88 3.51L178.88 3.51L178.88 3.51Q177.66-8.37 177.66-20.32L177.66-20.32L177.66-20.32Q177.66-32.27 176.58-44.15L176.58-44.15L176.58-44.15Q176.18-48.20 175.37-52.04L175.37-52.04L175.37-52.04Q174.56-55.89 173.68-59.81L173.68-59.81L173.68-59.81Q172.80-63.72 172.19-67.64L172.19-67.64L172.19-67.64Q171.59-71.55 171.59-75.87L171.59-75.87L171.59-75.87Q171.59-81.95 174.69-85.39L174.69-85.39L174.69-85.39Q177.80-88.83 182.45-90.59L182.45-90.59L182.45-90.59Q187.11-92.34 192.51-92.75L192.51-92.75L192.51-92.75Q197.91-93.15 202.50-93.15L202.50-93.15L202.50-93.15Q211.82-93.15 220.79-91.80L220.79-91.80L220.79-91.80Q229.77-90.45 236.79-86.54L236.79-86.54L236.79-86.54Q243.81-82.62 248.06-75.53L248.06-75.53L248.06-75.53Q252.32-68.45 252.32-57.11L252.32-57.11L252.32-57.11Q252.32-47.52 249.41-40.37L249.41-40.37L249.41-40.37Q246.51-33.21 241.25-28.49L241.25-28.49L241.25-28.49Q235.98-23.76 228.49-21.40L228.49-21.40L228.49-21.40Q221.00-19.04 211.82-19.04L211.82-19.04L211.82-19.04Q211.41-19.04 210.06-19.10L210.06-19.10L210.06-19.10Q208.71-19.17 207.23-19.37L207.23-19.37L207.23-19.37Q205.74-19.58 204.59-20.05L204.59-20.05L204.59-20.05Q203.45-20.52 203.45-21.33L203.45-21.33L203.85-22.28L203.85-22.28Q206.15-22.14 208.44-22.07L208.44-22.07L208.44-22.07Q210.74-22.01 213.03-22.01L213.03-22.01L213.03-22.01Q217.08-22.01 221.06-22.41L221.06-22.41L221.06-22.41Q225.05-22.82 228.83-24.03L228.83-24.03L228.83-24.03Q232.61-25.25 235.85-27.41L235.85-27.41L235.85-27.41Q238.81-29.43 241.38-32.54L241.38-32.54L241.38-32.54Q238.68-29.43 235.58-27.41L235.58-27.41L235.58-27.41Q232.20-25.25 228.35-24.17L228.35-24.17L228.35-24.17Q224.51-23.09 220.39-22.75L220.39-22.75L220.39-22.75Q216.27-22.41 212.09-22.41L212.09-22.41L212.09-22.41Q210.20-22.41 208.17-22.48L208.17-22.48L208.17-22.48Q206.15-22.55 204.26-22.68L204.26-22.68L204.12-25.25L204.12-25.25Q203.04-25.11 202.23-25.04L202.23-25.04L202.23-25.04Q201.42-24.98 200.75-24.98L200.75-24.98L200.75-24.98Q199.13-24.98 197.78-25.45L197.78-25.45L197.78-25.45Q196.43-25.92 194.54-27.14ZM206.82-77.76L206.82-77.76L206.82-77.76Q202.23-77.76 197.10-77.42L197.10-77.42L197.10-77.42Q191.97-77.09 187.65-75.60L187.65-75.60L186.98-74.52L186.98-74.52Q192.11-76.01 196.43-76.28L196.43-76.28L196.43-76.28Q200.75-76.55 204.66-76.55L204.66-76.55L205.20-76.55L205.20-76.55Q211.01-76.55 216.68-76.21L216.68-76.21L216.68-76.21Q222.35-75.87 226.80-73.91L226.80-73.91L226.80-73.91Q231.26-71.95 234.02-67.84L234.02-67.84L234.02-67.84Q236.79-63.72 236.79-56.16L236.79-56.16L236.79-56.16Q236.79-53.87 236.39-51.84L236.39-51.84L236.39-51.84Q235.98-49.82 235.31-47.79L235.31-47.79L235.31-47.79Q235.85-49.68 236.18-51.64L236.18-51.64L236.18-51.64Q236.52-53.60 236.52-55.62L236.52-55.62L236.52-55.62Q236.52-60.75 234.77-64.94L234.77-64.94L234.77-64.94Q233.01-69.12 229.10-72.50L229.10-72.50L228.15-73.04L228.15-73.04Q226.13-73.98 223.09-74.52L223.09-74.52L223.09-74.52Q220.05-75.06 216.68-75.40L216.68-75.40L216.68-75.40Q213.30-75.73 209.86-75.80L209.86-75.80L209.86-75.80Q206.42-75.87 203.45-75.87L203.45-75.87L199.67-75.87L199.67-75.87Q197.24-75.87 194.06-75.47L194.06-75.47L194.06-75.47Q190.89-75.06 188.60-74.39L188.60-74.39L188.60-74.39Q188.60-71.01 189.20-67.70L189.20-67.70L189.20-67.70Q189.81-64.40 190.49-61.16L190.49-61.16L191.97-54.68L191.97-54.68Q192.78-51.44 193.05-48.20L193.05-48.20L194.27-31.32L194.27-31.32Q195.21-32.00 196.36-32.47L196.36-32.47L196.36-32.47Q197.51-32.94 199.40-32.94L199.40-32.94L200.07-32.94L200.07-32.94Q203.04-32.00 206.21-31.86L206.21-31.86L206.21-31.86Q209.39-31.73 212.49-31.73L212.49-31.73L212.49-31.73Q218.97-31.73 224.03-32.94L224.03-32.94L224.03-32.94Q229.10-34.16 232.61-37.06L232.61-37.06L232.61-37.06Q236.12-39.96 237.94-44.75L237.94-44.75L237.94-44.75Q239.76-49.55 239.76-56.57L239.76-56.57L239.76-56.57Q239.76-59.67 238.75-63.38L238.75-63.38L238.75-63.38Q237.74-67.09 235.71-70.34L235.71-70.34L235.71-70.34Q233.69-73.58 230.58-75.73L230.58-75.73L230.58-75.73Q227.61-77.90 223.70-78.03L223.70-78.03L223.70-78.03Q227.48-77.63 230.45-75.60L230.45-75.60L230.45-75.60Q233.42-73.58 235.44-70.47L235.44-70.47L235.44-70.47Q237.47-67.37 238.48-63.65L238.48-63.65L238.48-63.65Q239.49-59.94 239.49-56.43L239.49-56.43L239.49-56.43Q239.49-44.15 233.55-38.34L233.55-38.34L233.55-38.34Q227.61-32.54 215.33-32.54L215.33-32.54L215.33-32.54Q212.36-32.54 209.39-32.80L209.39-32.80L203.45-33.34L203.45-33.34Q207.90-34.43 212.56-34.63L212.56-34.63L212.56-34.63Q217.22-34.83 221.47-35.64L221.47-35.64L221.47-35.64Q225.72-36.45 229.16-38.68L229.16-38.68L229.16-38.68Q232.61-40.91 234.77-46.17L234.77-46.17L235.98-45.77L235.98-45.77Q237.60-50.22 237.60-55.08L237.60-55.08L237.60-55.08Q237.60-62.51 235.10-66.96L235.10-66.96L235.10-66.96Q232.61-71.42 228.42-73.84L228.42-73.84L228.42-73.84Q224.24-76.28 218.63-77.02L218.63-77.02L218.63-77.02Q213.03-77.76 206.82-77.76ZM249.62-57.38L249.62-57.38L249.62-57.38Q249.62-62.91 248.13-67.57L248.13-67.57L248.13-67.57Q246.65-72.23 243.54-76.68L243.54-76.68L243.54-76.68Q246.38-72.23 247.79-67.16L247.79-67.16L247.79-67.16Q249.21-62.10 249.21-56.84L249.21-56.84L249.21-56.84Q249.21-48.33 245.84-40.50L245.84-40.50L245.84-40.50Q247.59-44.28 248.54-48.47L248.54-48.47L248.54-48.47Q249.62-52.92 249.62-57.38ZM226.94-87.89L226.94-87.89L226.94-87.89Q228.83-87.21 230.65-86.74L230.65-86.74L230.65-86.74Q232.47-86.27 234.36-85.46L234.36-85.46L234.36-85.46Q230.99-87.21 226.94-87.89ZM239.76-81.41L239.76-81.41L239.76-81.41Q239.22-82.48 237.33-83.70L237.33-83.70L237.33-83.70Q235.58-84.78 234.50-85.32L234.50-85.32L234.50-85.32Q235.85-84.24 237.06-83.57L237.06-83.57L237.06-83.57Q238.41-82.76 239.76-81.41ZM304.97-9.04L304.97-9.04L304.97-9.04Q304.97-9.86 305.91-10.53L305.91-10.53L305.91-10.53Q306.86-11.21 308.14-11.75L308.14-11.75L308.14-11.75Q309.42-12.29 310.70-12.69L310.70-12.69L310.70-12.69Q311.99-13.10 312.66-13.37L312.66-13.37L312.66-13.37Q319.14-12.56 325.62-12.02L325.62-12.02L325.62-12.02Q332.10-11.48 338.58-11.48L338.58-11.48L338.58-11.48Q341.01-11.48 345.33-11.54L345.33-11.54L345.33-11.54Q349.65-11.61 354.78-12.02L354.78-12.02L354.78-12.02Q359.91-12.42 365.18-13.30L365.18-13.30L365.18-13.30Q370.44-14.18 374.76-15.80L374.76-15.80L374.76-15.80Q379.08-17.42 381.78-19.85L381.78-19.85L381.78-19.85Q384.48-22.28 384.48-25.92L384.48-25.92L384.48-25.92Q384.48-28.89 383.20-31.25L383.20-31.25L383.20-31.25Q381.92-33.62 379.82-35.44L379.82-35.44L379.82-35.44Q377.73-37.26 375.17-38.48L375.17-38.48L375.17-38.48Q374.22-39.02 373.14-39.42L373.14-39.42L373.14-39.42Q374.22-38.88 375.17-38.34L375.17-38.34L375.17-38.34Q377.60-36.99 379.55-35.03L379.55-35.03L379.55-35.03Q381.51-33.08 382.73-30.71L382.73-30.71L382.73-30.71Q383.94-28.35 383.94-25.38L383.94-25.38L383.94-25.38Q383.94-22.14 381.58-19.91L381.58-19.91L381.58-19.91Q379.22-17.69 375.50-16.20L375.50-16.20L375.50-16.20Q371.79-14.72 367.27-13.91L367.27-13.91L367.27-13.91Q362.75-13.10 358.29-12.69L358.29-12.69L358.29-12.69Q353.84-12.29 350.06-12.22L350.06-12.22L350.06-12.22Q346.28-12.15 344.12-12.15L344.12-12.15L344.12-12.15Q337.23-12.15 330.28-12.62L330.28-12.62L330.28-12.62Q323.32-13.10 316.44-13.77L316.44-13.77L316.44-13.77Q318.87-14.45 321.37-14.78L321.37-14.78L321.37-14.78Q323.87-15.12 326.43-15.12L326.43-15.12L326.43-15.12Q330.75-15.12 334.94-15.05L334.94-15.05L334.94-15.05Q339.12-14.99 343.31-14.99L343.31-14.99L343.31-14.99Q348.30-14.99 353.16-15.19L353.16-15.19L353.16-15.19Q358.02-15.39 363.15-16.20L363.15-16.20L363.56-14.58L363.56-14.58Q365.58-14.99 368.69-15.86L368.69-15.86L368.69-15.86Q371.79-16.74 374.69-18.09L374.69-18.09L374.69-18.09Q377.60-19.44 379.69-21.46L379.69-21.46L379.69-21.46Q381.78-23.49 381.78-26.19L381.78-26.19L381.78-26.19Q381.78-30.11 378.94-33.08L378.94-33.08L378.94-33.08Q376.11-36.05 371.72-38.41L371.72-38.41L371.72-38.41Q367.34-40.77 361.80-42.53L361.80-42.53L361.80-42.53Q356.26-44.28 350.93-45.63L350.93-45.63L350.93-45.63Q345.60-46.98 340.88-48.06L340.88-48.06L340.88-48.06Q336.15-49.14 333.31-50.09L333.31-50.09L333.31-49.28L333.31-49.28Q336.15-48.20 340.74-47.05L340.74-47.05L340.74-47.05Q345.33-45.90 350.66-44.55L350.66-44.55L350.66-44.55Q356.00-43.20 361.39-41.51L361.39-41.51L361.39-41.51Q366.80-39.83 371.18-37.53L371.18-37.53L371.18-37.53Q375.57-35.23 378.34-32.27L378.34-32.27L378.34-32.27Q381.11-29.30 381.11-25.52L381.11-25.52L381.11-25.52Q381.11-23.36 379.08-21.74L379.08-21.74L379.08-21.74Q377.06-20.12 374.29-18.97L374.29-18.97L374.29-18.97Q371.52-17.82 368.69-17.14L368.69-17.14L368.69-17.14Q365.85-16.47 364.37-16.20L364.37-16.20L364.37-16.20Q366.12-16.61 368.89-17.35L368.89-17.35L368.89-17.35Q371.66-18.09 374.29-19.30L374.29-19.30L374.29-19.30Q376.92-20.52 378.81-22.21L378.81-22.21L378.81-22.21Q380.70-23.90 380.70-26.19L380.70-26.19L380.70-26.19Q380.70-29.97 377.73-32.54L377.73-32.54L377.73-32.54Q374.76-35.10 369.90-37.13L369.90-37.13L369.90-37.13Q365.04-39.15 358.83-40.77L358.83-40.77L358.83-40.77Q352.62-42.39 346.07-44.28L346.07-44.28L346.07-44.28Q339.53-46.17 333.31-48.60L333.31-48.60L333.31-48.60Q327.11-51.03 322.25-54.68L322.25-54.68L322.25-54.68Q317.38-58.32 314.42-63.32L314.42-63.32L314.42-63.32Q311.44-68.31 311.44-75.33L311.44-75.33L311.44-75.33Q311.44-82.22 314.75-87.01L314.75-87.01L314.75-87.01Q318.06-91.80 323.26-94.84L323.26-94.84L323.26-94.84Q328.46-97.88 334.67-99.23L334.67-99.23L334.67-99.23Q340.88-100.58 346.68-100.58L346.68-100.58L346.68-100.58Q355.19-100.58 363.35-98.15L363.35-98.15L363.35-98.15Q371.52-95.72 378.81-91.40L378.81-91.40L378.81-91.40Q378-91.13 377.87-90.65L377.87-90.65L377.87-90.65Q377.73-90.18 377.66-89.64L377.66-89.64L377.66-89.64Q377.60-89.10 377.39-88.70L377.39-88.70L377.39-88.70Q377.19-88.29 376.51-88.29L376.51-88.29L376.51-88.29Q375.98-88.29 374.42-88.76L374.42-88.76L374.42-88.76Q372.87-89.23 371.12-89.84L371.12-89.84L371.12-89.84Q369.36-90.45 367.74-90.99L367.74-90.99L367.74-90.99Q366.12-91.53 365.58-91.80L365.58-91.80L365.18-90.59L365.18-90.59Q366.39-90.05 368.35-89.03L368.35-89.03L368.35-89.03Q370.31-88.02 372.13-86.60L372.13-86.60L372.13-86.60Q373.95-85.19 375.23-83.57L375.23-83.57L375.23-83.57Q376.51-81.95 376.51-80.33L376.51-80.33L376.51-80.33Q376.51-78.57 374.89-78.57L374.89-78.57L374.89-78.57Q372.87-78.57 370.10-79.65L370.10-79.65L370.10-79.65Q367.34-80.73 363.96-82.01L363.96-82.01L363.96-82.01Q360.59-83.30 356.74-84.38L356.74-84.38L356.74-84.38Q352.89-85.46 348.98-85.46L348.98-85.46L348.98-85.46Q346.41-85.46 342.97-84.98L342.97-84.98L342.97-84.98Q339.53-84.51 336.35-83.23L336.35-83.23L336.35-83.23Q333.18-81.95 331.02-79.72L331.02-79.72L331.02-79.72Q328.86-77.49 328.86-74.12L328.86-74.12L328.86-74.12Q328.86-71.01 331.76-68.85L331.76-68.85L331.76-68.85Q334.67-66.69 339.46-64.94L339.46-64.94L339.46-64.94Q344.25-63.18 350.32-61.56L350.32-61.56L350.32-61.56Q356.40-59.94 362.81-57.98L362.81-57.98L362.81-57.98Q369.23-56.03 375.30-53.46L375.30-53.46L375.30-53.46Q381.38-50.90 386.17-47.25L386.17-47.25L386.17-47.25Q390.96-43.61 393.86-38.61L393.86-38.61L393.86-38.61Q396.76-33.62 396.76-26.87L396.76-26.87L396.76-26.87Q396.76-20.25 394.06-15.66L394.06-15.66L394.06-15.66Q391.37-11.07 386.91-8.03L386.91-8.03L386.91-8.03Q382.46-5.00 376.79-3.31L376.79-3.31L376.79-3.31Q371.12-1.62 365.11-0.74L365.11-0.74L365.11-0.74Q359.10 0.14 353.23 0.34L353.23 0.34L353.23 0.34Q347.36 0.54 342.63 0.54L342.63 0.54L329.13 0.54L329.13 0.54Q327.92 0.54 325.82 0.47L325.82 0.47L325.82 0.47Q323.73 0.41 321.70 0.20L321.70 0.20L321.70 0.20Q319.68 0 318.19-0.54L318.19-0.54L318.19-0.54Q316.71-1.08 316.71-1.89L316.71-1.89L316.85-2.57L316.85-2.57Q322.38-2.29 327.78-2.09L327.78-2.09L327.78-2.09Q333.18-1.89 338.72-1.89L338.72-1.89L338.72-1.89Q343.85-1.89 348.98-1.89L348.98-1.89L348.98-1.89Q353.56-2.03 358.16-2.43L358.16-2.43L358.16-2.43Q355.86-2.29 353.56-2.16L353.56-2.16L353.56-2.16Q350.73-2.16 348.03-2.16L348.03-2.16L342.63-2.16L342.63-2.16Q329.94-2.16 317.66-2.97L317.66-2.97L317.66-2.97Q317.93-4.05 317.93-4.46L317.93-4.46L317.93-4.46Q317.93-5.00 317.66-5.54L317.66-5.54L317.66-5.54Q317.38-5.54 316.91-5.47L316.91-5.47L316.91-5.47Q316.44-5.40 315.76-5.40L315.76-5.40L315.76-5.40Q314.28-5.40 312.46-5.54L312.46-5.54L312.46-5.54Q310.63-5.67 308.95-6.08L308.95-6.08L308.95-6.08Q307.26-6.48 306.11-7.22L306.11-7.22L306.11-7.22Q304.97-7.97 304.97-9.04ZM387.86-12.56L387.86-12.56L387.86-12.56Q385.56-10.53 383.00-9.18L383.00-9.18L383.00-9.18Q380.70-7.97 378.27-6.89L378.27-6.89L378.27-6.89Q380.70-7.70 383.00-8.78L383.00-8.78L383.00-8.78Q385.56-9.86 387.86-12.56ZM406.76-42.26L406.89-41.85L406.89-41.85Q411.08-45.09 416.48-49.48L416.48-49.48L416.48-49.48Q421.88-53.87 426.94-58.86L426.94-58.86L426.94-58.86Q432.00-63.86 436.12-69.19L436.12-69.19L436.12-69.19Q440.24-74.52 441.72-79.65L441.72-79.65L440.91-79.92L440.91-79.92Q439.43-76.28 436.52-72.09L436.52-72.09L436.52-72.09Q433.62-67.91 430.11-63.86L430.11-63.86L430.11-63.86Q426.60-59.81 422.82-56.30L422.82-56.30L422.82-56.30Q419.04-52.79 415.80-50.49L415.80-50.49L415.80-50.49Q418.77-52.79 423.29-57.51L423.29-57.51L423.29-57.51Q427.82-62.24 432.00-67.84L432.00-67.84L432.00-67.84Q436.19-73.44 439.22-79.04L439.22-79.04L439.22-79.04Q442.26-84.65 442.26-88.70L442.26-88.70L436.05-90.05L436.05-90.05Q433.22-89.10 430.65-86.74L430.65-86.74L430.65-86.74Q428.09-84.38 425.66-82.89L425.66-82.89L425.66-82.89Q425.39-83.97 424.64-84.51L424.64-84.51L424.64-84.51Q423.90-85.05 423.63-86.13L423.63-86.13L423.63-86.13Q424.31-87.48 425.39-88.56L425.39-88.56L425.39-88.56Q426.47-89.64 427.82-90.32L427.82-90.32L427.01-91.40L427.01-91.40Q425.52-90.72 423.97-90.18L423.97-90.18L423.97-90.18Q422.42-89.64 420.80-89.64L420.80-89.64L420.80-89.64Q419.58-89.64 418.64-90.25L418.64-90.25L418.64-90.25Q417.69-90.86 417.69-91.94L417.69-91.94L417.69-93.15L417.69-93.15Q420.26-98.28 425.25-101.86L425.25-101.86L425.25-101.86Q430.25-105.44 436.19-105.44L436.19-105.44L436.19-105.44Q439.97-105.44 443.95-104.22L443.95-104.22L443.95-104.22Q447.93-103.01 451.17-100.71L451.17-100.71L451.17-100.71Q454.41-98.42 456.44-95.11L456.44-95.11L456.44-95.11Q458.46-91.80 458.46-87.48L458.46-87.48L458.46-87.48Q458.46-81.41 457.18-76.95L457.18-76.95L457.18-76.95Q455.90-72.50 453.60-68.72L453.60-68.72L453.60-68.72Q451.31-64.94 448.20-61.36L448.20-61.36L448.20-61.36Q445.10-57.78 441.59-53.46L441.59-53.46L441.59-53.46Q442.67-53.46 445.64-53.80L445.64-53.80L445.64-53.80Q448.61-54.14 451.71-54.14L451.71-54.14L451.71-54.14Q454.01-54.14 455.76-53.73L455.76-53.73L455.76-53.73Q457.52-53.33 457.52-52.25L457.52-52.25L457.38-51.57L457.38-51.57Q452.79-51.57 448.34-51.44L448.34-51.44L448.34-51.44Q443.88-51.30 439.29-51.17L439.29-51.17L439.16-51.03L452.52-51.03L452.52-51.03Q454.82-51.03 457.11-50.90L457.11-50.90L456.71-49.55L459.00-48.60L460.49-48.60L460.49-48.60Q461.57-48.06 462.44-47.25L462.44-47.25L462.44-47.25Q463.32-46.44 463.32-45.23L463.32-45.23L463.32-45.23Q463.32-44.01 461.77-42.93L461.77-42.93L461.77-42.93Q460.22-41.85 459.27-41.18L459.27-41.18L459.27-41.18Q457.38-41.85 455.36-41.92L455.36-41.92L455.36-41.92Q453.33-41.98 451.44-41.98L451.44-41.98L451.44-41.98Q449.28-41.98 447.12-41.78L447.12-41.78L447.12-41.78Q444.96-41.58 442.80-41.45L442.80-41.45L442.80-41.45Q446.58-41.31 450.29-41.11L450.29-41.11L450.29-41.11Q454.01-40.91 457.79-40.37L457.79-40.37L457.79-40.37Q454.82-39.02 451.58-38.68L451.58-38.68L451.58-38.68Q448.34-38.34 445.23-38.34L445.23-38.34L433.89-38.48L433.89-39.83L433.89-39.83Q430.79-39.15 427.75-38.95L427.75-38.95L427.75-38.95Q424.71-38.75 421.61-38.75L421.61-38.75L409.32-38.88L408.65-38.34L408.65-38.34Q414.18-38.21 419.58-38.21L419.58-38.21L430.52-38.21L430.52-38.21Q427.14-37.94 423.77-37.94L423.77-37.94L408.65-37.94L406.22-42.53L414.59-49.41L406.76-42.26ZM409.86-41.98L408.65-41.04L425.79-41.04L425.79-41.04Q426.87-41.04 427.95-41.18L427.95-41.18L427.82-41.31L427.82-41.31Q424.44-41.85 421.07-41.92L421.07-41.92L421.07-41.92Q417.69-41.98 414.18-41.98L414.18-41.98L409.86-41.98ZM429.17-59.27L429.17-59.27L429.17-59.27Q426.74-56.30 424.04-53.60L424.04-53.60L424.04-53.60Q424.98-53.60 426.47-55.08L426.47-55.08L426.47-55.08Q427.95-56.57 429.50-58.52L429.50-58.52L429.50-58.52Q431.06-60.48 432.41-62.37L432.41-62.37L432.41-62.37Q433.49-63.99 434.16-64.80L434.16-64.80L434.16-64.80Q431.60-62.10 429.17-59.27ZM423.63-52.52L423.50-53.06L423.50-53.06Q420.80-50.36 417.89-48.20L417.89-48.20L417.89-48.20Q414.99-46.04 412.29-43.88L412.29-43.88L412.29-43.88Q415.13-45.90 418.23-47.79L418.23-47.79L418.23-47.79Q421.34-49.68 423.63-52.52L423.63-52.52Z" fill="url(#glowing-gradient)"/>
        </g>
    </g>
</svg>